<svg width="57" height="45" viewBox="0 0 57 45" fill="none" xmlns="http://www.w3.org/2000/svg">
<path d="M28.5609 0.015588C34.6251 0.015588 40.6889 0.015588 46.7523 0.015588C48.1286 0.015588 49.4097 0.299049 50.5236 1.15276C52.0616 2.332 52.7825 3.91097 52.7858 5.82544C52.7924 10.0434 52.7906 14.261 52.7803 18.4782C52.7803 18.8713 52.8843 19.0562 53.2675 19.2478C55.2351 20.2322 56.4442 21.8034 56.4664 24.0511C56.514 29.0228 56.4863 33.9944 56.4896 38.9661C56.4896 40.7521 56.4819 42.5381 56.5018 44.3242C56.5018 44.6984 56.4232 44.818 56.0235 44.8158C52.6323 44.7981 49.2411 44.7981 45.8498 44.8158C45.4158 44.8158 45.2962 44.7051 45.2962 44.2622C45.3228 42.6013 45.3095 40.9481 45.3062 39.2905C45.3062 38.1079 44.5311 37.3329 43.3386 37.3329C33.4602 37.3329 23.5819 37.3329 13.7035 37.3329C12.4855 37.3329 11.7104 38.1079 11.6983 39.3259C11.6828 40.9869 11.6728 42.6411 11.6983 44.2976C11.6983 44.7305 11.561 44.8136 11.1646 44.8114C7.79181 44.7981 4.41906 44.7981 1.04631 44.8114C0.611154 44.8114 0.492676 44.6929 0.492676 44.2577C0.511499 37.6473 0.498212 31.0369 0.512607 24.4254C0.512607 22.0126 1.65531 20.2676 3.8156 19.2212C4.19429 19.0385 4.26515 18.8392 4.26515 18.4782C4.26515 14.0768 4.25076 9.67653 4.28065 5.27513C4.29837 2.65754 6.71887 0.16507 9.32538 0.0787025C13.9117 -0.0729937 18.5002 0.0465916 23.0866 0.0178026C24.9124 0.00562257 26.7406 0.015588 28.5609 0.015588ZM28.49 22.409C21.0824 22.409 13.6736 22.419 6.26488 22.3969C5.22958 22.3969 4.181 23.172 4.25851 24.3822C4.30612 25.1152 4.26737 25.8549 4.26737 26.5968C4.26737 31.2373 4.27512 35.8779 4.25629 40.5185C4.25629 40.9869 4.38806 41.1087 4.84204 41.0898C5.70682 41.0544 6.57603 41.0489 7.4397 41.0898C7.90918 41.112 7.99334 40.926 7.9723 40.5229C7.94129 39.7146 7.92136 38.8963 8.09078 38.1035C8.66545 35.4117 10.8977 33.5903 13.6803 33.587C23.5955 33.5729 33.5104 33.5729 43.4249 33.587C44.6268 33.5904 45.7962 33.9773 46.763 34.6912C47.7299 35.4051 48.4437 36.4089 48.8007 37.5565C49.1008 38.5187 49.0942 39.5131 49.0532 40.503C49.0355 40.9459 49.1329 41.1153 49.6157 41.0909C50.464 41.0482 51.314 41.0482 52.1624 41.0909C52.6496 41.1142 52.7792 40.9714 52.7769 40.483C52.7592 35.1604 52.7681 29.8388 52.7648 24.5173C52.7648 23.1288 52.0439 22.4135 50.6609 22.4135L28.49 22.409ZM28.49 3.74488H10.0728C8.78725 3.74488 8.00219 4.44025 7.99776 5.6516C7.98337 9.85037 7.99776 14.0503 7.98669 18.249C7.98669 18.5535 8.06863 18.6698 8.38974 18.6631C9.34753 18.6454 10.3075 18.6421 11.2686 18.6631C11.613 18.6709 11.7049 18.5646 11.7016 18.2269C11.6927 17.4374 11.665 16.649 11.7924 15.8595C12.1976 13.3316 14.503 11.2788 17.063 11.25C19.6097 11.2212 22.1498 11.2444 24.6932 11.2278C25.9873 11.1998 27.2485 11.6371 28.2476 12.4602C28.4502 12.6252 28.5797 12.6418 28.7923 12.4602C29.6394 11.7449 30.6315 11.281 31.7355 11.2621C34.4815 11.2156 37.2286 11.2212 39.9736 11.2522C42.2235 11.2776 44.2587 12.85 44.9972 14.9793C45.3449 15.9813 45.3294 16.9989 45.3006 18.022C45.2874 18.496 45.3748 18.703 45.9152 18.6709C46.7804 18.6244 47.6476 18.6244 48.5128 18.6709C48.9879 18.6942 49.0809 18.5369 49.0787 18.0885C49.0572 14.075 49.0513 10.0604 49.0609 6.04468C49.0609 4.46903 48.3611 3.74709 46.791 3.74709L28.49 3.74488ZM21.0315 18.6576C22.2838 18.6576 23.5361 18.672 24.7884 18.651C25.3875 18.641 26.1891 18.9223 26.5268 18.5303C26.8225 18.1881 26.621 17.4086 26.6176 16.8218C26.6176 15.7787 25.9533 15.0058 24.9136 14.9892C22.3358 14.9471 19.757 14.9538 17.1793 14.9804C16.3278 14.9881 15.7719 15.5008 15.5272 16.3368C15.3478 16.9502 15.4973 17.5802 15.4397 18.2003C15.4065 18.5557 15.525 18.6698 15.8926 18.6654C17.6056 18.6465 19.3218 18.6565 21.0315 18.6576ZM35.9796 18.6576C37.6926 18.6576 39.4055 18.651 41.1185 18.6643C41.4352 18.6643 41.588 18.61 41.5614 18.2457C41.5293 17.733 41.5614 17.2159 41.547 16.6955C41.5424 16.2714 41.3818 15.8638 41.0959 15.5505C40.81 15.2373 40.4187 15.0402 39.9968 14.997C39.7394 14.9693 39.4806 14.9567 39.2217 14.9593C36.9385 14.9593 34.6542 14.9494 32.371 14.9593C31.0966 14.9649 30.3779 15.7134 30.3779 16.9912C30.3779 17.3964 30.4034 17.8028 30.3713 18.2092C30.3403 18.5856 30.4909 18.6643 30.8397 18.6609C32.5493 18.6488 34.2622 18.6565 35.9752 18.6565L35.9796 18.6576Z" fill="#CB3F58"/>
</svg>
