<svg width="58" height="64" viewBox="0 0 58 64" fill="none" xmlns="http://www.w3.org/2000/svg">
<g clip-path="url(#clip0_344_581)">
<path d="M1.77686 0.0776367H57.011C57.7743 0.511968 58.0007 1.18411 57.9993 2.03569C57.9879 20.4001 57.985 38.7645 57.9907 57.1289C57.9907 58.4974 57.5237 58.9587 56.1324 58.9644C55.1056 58.9644 54.0775 58.9801 53.0508 58.9644C52.6777 58.9573 52.5509 59.0698 52.5637 59.45C52.5913 60.2304 52.5913 61.0113 52.5637 61.7926C52.5607 62.1666 52.4108 62.5244 52.1462 62.7887C51.8816 63.053 51.5236 63.2026 51.1497 63.2052C50.3793 63.2052 49.7712 62.6185 49.7384 61.7968C49.7114 61.1418 49.7384 60.4825 49.7256 59.826C49.7142 58.8904 49.868 58.9716 48.8712 58.9716C35.7454 58.9716 22.6191 58.9716 9.49229 58.9716C9.38986 58.978 9.28713 58.978 9.1847 58.9716C8.79451 58.9203 8.63645 59.0584 8.65496 59.4771C8.68629 60.1891 8.68771 60.9154 8.65496 61.6331C8.61081 62.7538 7.72079 63.4473 6.76953 63.1226C6.13014 62.9062 5.7841 62.3779 5.76131 61.5263C5.7428 60.8698 5.73141 60.2105 5.76131 59.554C5.7841 59.1097 5.66733 58.9331 5.1917 58.9545C4.35009 58.9929 3.50706 58.9673 2.66546 58.9659C1.2699 58.9616 0.798542 58.4831 0.798542 57.0676C0.796644 38.726 0.793321 20.382 0.788574 2.03569C0.788574 1.18411 1.01357 0.511968 1.77686 0.0776367ZM27.6943 29.4128C27.6943 38.0814 27.6905 46.749 27.6829 55.4157C27.6829 55.917 27.7969 56.0751 28.3209 56.0722C32.1611 56.0494 36.0022 56.0494 39.8442 56.0722C40.3369 56.0722 40.5021 55.9768 40.5021 55.4428C40.4869 38.1483 40.4869 20.8539 40.5021 3.55941C40.5021 2.98125 40.3127 2.90293 39.8058 2.90435C36.0064 2.92429 32.2057 2.93141 28.4135 2.90435C27.7926 2.90435 27.6858 3.0909 27.6872 3.66194C27.6977 12.247 27.6981 20.8306 27.6886 29.4128H27.6943ZM43.3317 29.4812C43.3317 38.1308 43.3274 46.7799 43.3189 55.4286C43.3189 55.9384 43.4428 56.0751 43.9583 56.0722C47.4918 56.0485 51.0253 56.0485 54.5588 56.0722C55.0444 56.0722 55.1284 55.9099 55.1284 55.4727C55.1189 38.1536 55.1189 20.8349 55.1284 3.51669C55.1284 3.02824 54.986 2.90293 54.5075 2.90435C51.0158 2.92619 47.5236 2.92619 44.0309 2.90435C43.4883 2.90435 43.3118 3.014 43.3189 3.59786C43.335 12.2294 43.3374 20.8591 43.326 29.4869L43.3317 29.4812ZM3.67225 43.5962C3.67225 47.5408 3.68222 51.484 3.66086 55.4286C3.66086 55.9426 3.80326 56.0779 4.31022 56.0765C10.9443 56.0594 17.5794 56.0594 24.2154 56.0765C24.7423 56.0765 24.8477 55.9241 24.8463 55.4243C24.8311 47.5778 24.8311 39.7309 24.8463 31.8835C24.8463 31.3851 24.7395 31.2299 24.214 31.2313C17.578 31.2493 10.9429 31.2493 4.30879 31.2313C3.79045 31.2313 3.65801 31.3737 3.66086 31.8864C3.68222 35.7896 3.67225 39.6929 3.67225 43.5962ZM14.2913 12.5522C17.578 12.5522 20.8661 12.5365 24.1528 12.5679C24.7352 12.5679 24.852 12.3927 24.8477 11.8559C24.8206 9.08325 24.8249 6.3021 24.8477 3.5352C24.8477 3.07239 24.7551 2.91005 24.2496 2.91147C17.5936 2.92951 10.9372 2.92951 4.28031 2.91147C3.7876 2.91147 3.66086 3.05388 3.66513 3.53093C3.68602 6.32489 3.68602 9.11885 3.66513 11.9128C3.66513 12.4212 3.79472 12.5736 4.31022 12.5693C7.63535 12.5437 10.9633 12.5551 14.2913 12.5551V12.5522ZM14.2913 20.5425C17.6178 20.5425 20.943 20.5325 24.2695 20.5539C24.7323 20.5539 24.8562 20.4343 24.8391 19.9743C24.8078 18.6414 24.8135 17.3056 24.8391 15.9713C24.8463 15.5726 24.7323 15.4515 24.3265 15.453C17.6136 15.4644 10.9002 15.4644 4.18633 15.453C3.7819 15.453 3.65516 15.5726 3.66086 15.9742C3.68079 17.3085 3.68791 18.6442 3.66086 19.9771C3.65089 20.4485 3.80326 20.5553 4.25326 20.5468C7.59975 20.5368 10.9462 20.5453 14.2927 20.5453L14.2913 20.5425ZM14.2358 28.3334C17.5837 28.3334 20.9287 28.3334 24.2766 28.3419C24.6825 28.3419 24.8548 28.2707 24.8463 27.8122C24.8149 26.4992 24.8221 25.1848 24.8463 23.8705C24.8463 23.4931 24.7395 23.3834 24.3592 23.3834C17.6254 23.3948 10.8907 23.3948 4.155 23.3834C3.76624 23.3834 3.66513 23.5187 3.6694 23.8818C3.68507 25.1549 3.70073 26.4295 3.66228 27.7011C3.64662 28.2266 3.82177 28.3462 4.32304 28.3434C7.62395 28.3263 10.932 28.3362 14.2372 28.3362L14.2358 28.3334Z" fill="#CB3F58"/>
<path d="M31.3846 29.635C31.3846 30.4552 31.4017 31.2755 31.3846 32.0957C31.3604 33.0284 30.7936 33.6194 29.9606 33.6194C29.1275 33.6194 28.5479 33.0085 28.5365 32.0943C28.5204 30.4737 28.5204 28.8532 28.5365 27.2326C28.5365 26.3141 29.1218 25.6875 29.9321 25.6662C30.7424 25.6448 31.3561 26.2814 31.3846 27.2326C31.3846 27.2739 31.3846 27.3152 31.3846 27.3565V29.635Z" fill="#CB3F58"/>
<path d="M47.1658 29.6521C47.1658 30.4723 47.1829 31.294 47.1658 32.1142C47.1416 33.0384 46.5606 33.628 45.729 33.618C44.8973 33.608 44.332 32.9985 44.3234 32.0758C44.3102 30.4552 44.3102 28.8347 44.3234 27.2141C44.3306 26.3056 44.9287 25.6719 45.7347 25.6647C46.5407 25.6576 47.1416 26.2785 47.1587 27.1913C47.1829 28.0116 47.1673 28.8318 47.1658 29.6521Z" fill="#CB3F58"/>
<path d="M14.2294 35.9349C13.4091 35.9349 12.5875 35.9577 11.7672 35.9349C10.9128 35.9036 10.4243 35.5077 10.2478 34.7672C10.1813 34.4759 10.2117 34.171 10.3343 33.8985C10.4569 33.6261 10.665 33.4011 10.927 33.2577C11.0294 33.1915 11.1443 33.1469 11.2645 33.1267C13.2446 32.9572 15.2355 32.9572 17.2156 33.1267C17.8037 33.1808 18.1455 33.6336 18.2665 34.1933C18.3302 34.4552 18.3128 34.7302 18.2167 34.9819C18.1205 35.2337 17.9502 35.4503 17.7282 35.6031C17.385 35.8694 16.982 35.9249 16.5691 35.9278C15.7901 35.9406 15.0097 35.9363 14.2294 35.9349Z" fill="#CB3F58"/>
</g>
<defs>
<clipPath id="clip0_344_581">
<rect width="57.2107" height="63.1247" fill="white" transform="translate(0.789062 0.0776367)"/>
</clipPath>
</defs>
</svg>
