<svg width="31" height="31" viewBox="0 0 31 31" fill="none" xmlns="http://www.w3.org/2000/svg">
<path d="M15.3214 2.76893C19.3825 2.76893 19.9363 2.76893 21.5977 2.76893C23.0744 2.76893 23.8128 3.13812 24.3666 3.32272C25.105 3.69191 25.6588 3.8765 26.2125 4.43029C26.7663 4.98408 27.1355 5.53786 27.3201 6.27624C27.5047 6.83003 27.6893 7.56841 27.8739 9.04518C27.8739 10.7065 27.8739 11.0757 27.8739 15.3214C27.8739 19.5671 27.8739 19.9363 27.8739 21.5977C27.8739 23.0744 27.5047 23.8128 27.3201 24.3666C26.9509 25.105 26.7663 25.6588 26.2125 26.2125C25.6588 26.7663 25.105 27.1355 24.3666 27.3201C23.8128 27.5047 23.0744 27.6893 21.5977 27.8739C19.9363 27.8739 19.5671 27.8739 15.3214 27.8739C11.0757 27.8739 10.7065 27.8739 9.04518 27.8739C7.56841 27.8739 6.83003 27.5047 6.27624 27.3201C5.53786 26.9509 4.98408 26.7663 4.43029 26.2125C3.8765 25.6588 3.50731 25.105 3.32272 24.3666C3.13812 23.8128 2.95353 23.0744 2.76893 21.5977C2.76893 19.9363 2.76893 19.5671 2.76893 15.3214C2.76893 11.0757 2.76893 10.7065 2.76893 9.04518C2.76893 7.56841 3.13812 6.83003 3.32272 6.27624C3.69191 5.53786 3.8765 4.98408 4.43029 4.43029C4.98408 3.8765 5.53786 3.50731 6.27624 3.32272C6.83003 3.13812 7.56841 2.95353 9.04518 2.76893C10.7065 2.76893 11.2603 2.76893 15.3214 2.76893ZM15.3214 0C11.0757 0 10.7065 0 9.04518 0C7.38382 0 6.27624 0.369192 5.35327 0.738383C4.43029 1.10757 3.50731 1.66136 2.58434 2.58434C1.66136 3.50731 1.29217 4.2457 0.738383 5.35327C0.369192 6.27624 0.184595 7.38382 0 9.04518C0 10.7065 0 11.2603 0 15.3214C0 19.5671 0 19.9363 0 21.5977C0 23.259 0.369192 24.3666 0.738383 25.2896C1.10757 26.2125 1.66136 27.1355 2.58434 28.0585C3.50731 28.9815 4.2457 29.3507 5.35327 29.9045C6.27624 30.2736 7.38382 30.4582 9.04518 30.6428C10.7065 30.6428 11.2603 30.6428 15.3214 30.6428C19.3825 30.6428 19.9363 30.6428 21.5977 30.6428C23.259 30.6428 24.3666 30.2736 25.2896 29.9045C26.2125 29.5353 27.1355 28.9815 28.0585 28.0585C28.9815 27.1355 29.3507 26.3971 29.9045 25.2896C30.2736 24.3666 30.4582 23.259 30.6428 21.5977C30.6428 19.9363 30.6428 19.3825 30.6428 15.3214C30.6428 11.2603 30.6428 10.7065 30.6428 9.04518C30.6428 7.38382 30.2736 6.27624 29.9045 5.35327C29.5353 4.43029 28.9815 3.50731 28.0585 2.58434C27.1355 1.66136 26.3971 1.29217 25.2896 0.738383C24.3666 0.369192 23.259 0.184595 21.5977 0C19.9363 0 19.5671 0 15.3214 0Z" fill="#FFE5EA"/>
<path d="M15.3214 7.38382C10.8911 7.38382 7.38382 10.8911 7.38382 15.3214C7.38382 19.7517 10.8911 23.259 15.3214 23.259C19.7517 23.259 23.259 19.7517 23.259 15.3214C23.259 10.8911 19.7517 7.38382 15.3214 7.38382ZM15.3214 20.4901C12.5525 20.4901 10.1527 18.2749 10.1527 15.3214C10.1527 12.5525 12.3679 10.1527 15.3214 10.1527C18.0903 10.1527 20.4901 12.3679 20.4901 15.3214C20.4901 18.0903 18.0903 20.4901 15.3214 20.4901Z" fill="#FFE5EA"/>
<path d="M23.4436 9.04518C24.4631 9.04518 25.2896 8.21871 25.2896 7.19922C25.2896 6.17973 24.4631 5.35327 23.4436 5.35327C22.4241 5.35327 21.5977 6.17973 21.5977 7.19922C21.5977 8.21871 22.4241 9.04518 23.4436 9.04518Z" fill="#FFE5EA"/>
</svg>
