<svg width="67" height="58" viewBox="0 0 67 58" fill="none" xmlns="http://www.w3.org/2000/svg">
<g clip-path="url(#clip0_344_570)">
<path d="M66.7202 28.5532V55.3648C66.7202 56.744 66.3941 57.0807 65.03 57.0807H26.6701C25.3639 57.0807 25.0078 56.7204 25.0078 55.412C25.0078 37.5147 25.0078 19.6182 25.0078 1.72238C25.0078 0.356062 25.3467 0.00643921 26.7087 0.00643921H64.9892C66.4156 0.00643921 66.7202 0.317453 66.7202 1.7567V28.5532ZM45.8393 48.2608C51.7786 48.2608 57.7179 48.2501 63.6572 48.278C64.3178 48.278 64.5023 48.1171 64.5023 47.4414C64.4809 35.9404 64.4809 24.4378 64.5023 12.9339C64.5023 12.3033 64.3393 12.1381 63.7108 12.1403C58.0654 12.166 52.4199 12.1553 46.7659 12.1553C46.4442 12.1553 46.1224 12.1703 45.8029 12.1553C45.5302 12.1543 45.2686 12.0471 45.0736 11.8565C44.8786 11.6659 44.7655 11.4069 44.7583 11.1343C44.7025 10.5209 45.0693 10.1262 45.6484 9.97176C45.9116 9.92467 46.1797 9.91098 46.4463 9.93101C52.1976 9.93101 57.9488 9.93101 63.7001 9.93101C64.1484 9.93101 64.5087 9.98892 64.4937 9.30469C64.4487 7.13831 64.4658 4.97194 64.4937 2.80557C64.4937 2.34012 64.335 2.22 63.891 2.22215C56.9901 2.23359 50.0884 2.23359 43.186 2.22215C42.7034 2.22215 42.6005 2.4109 42.6134 2.83774C42.6369 3.58632 42.6305 4.33919 42.6134 5.08562C42.534 9.12237 39.4646 12.1489 35.4386 12.1639C32.9505 12.1639 30.4624 12.1832 27.9764 12.151C27.3844 12.151 27.2149 12.2861 27.2149 12.8974C27.235 24.4271 27.235 35.9568 27.2149 47.4865C27.2149 48.13 27.3887 48.2865 28.0171 48.2844C33.9629 48.2608 39.9022 48.2608 45.8393 48.2608ZM45.775 54.8457H54.8394C57.8423 54.8457 60.828 54.835 63.8224 54.8564C64.3457 54.8564 64.5216 54.7127 64.498 54.1829C64.4433 53.275 64.4433 52.3647 64.498 51.4567C64.5559 50.6996 64.35 50.4787 63.5542 50.4808C51.7615 50.508 39.9701 50.5144 28.1802 50.5001C28.0466 50.5076 27.9127 50.5076 27.7791 50.5001C27.3694 50.4551 27.2128 50.6138 27.2235 51.0406C27.2514 52.0037 27.275 52.9711 27.2235 53.9277C27.1828 54.6377 27.3672 54.8736 28.1308 54.8672C34.0101 54.8286 39.8914 54.8436 45.775 54.8457ZM33.8277 2.22429C31.8501 2.22429 29.8725 2.24145 27.897 2.22429C27.3651 2.22429 27.2192 2.38302 27.2257 2.90638C27.2514 5.04272 27.2514 7.17978 27.2257 9.31756C27.2257 9.81732 27.3737 9.94816 27.8691 9.94388C30.5138 9.92028 33.1585 9.94387 35.8054 9.92243C37.9074 9.89883 39.825 8.25796 40.2582 6.20527C40.492 5.09206 40.3483 3.96811 40.4105 2.85061C40.4405 2.34226 40.2475 2.22 39.767 2.22644C37.7808 2.23931 35.8032 2.22429 33.8277 2.22429Z" fill="#CB3F58"/>
<path d="M12.2218 24.1218C15.4048 24.1218 18.5879 24.1218 21.771 24.1218C23.1866 24.1218 23.4869 24.4328 23.3818 25.8378C22.97 31.2473 22.5367 36.6525 22.1206 42.0598C21.7774 46.5084 21.4421 50.9577 21.1146 55.4077C21.016 56.7204 20.6856 57.0657 19.3987 57.0657H4.95047C3.69783 57.0657 3.3954 56.7847 3.29888 55.5535C2.76265 48.7069 2.22642 41.8611 1.69018 35.0159C1.44995 31.9772 1.19971 28.9422 0.939461 25.9107C0.82149 24.5272 1.17755 24.1261 2.5932 24.124C5.802 24.1197 9.01153 24.119 12.2218 24.1218ZM12.1145 54.8436C14.1458 54.8436 16.1899 54.8436 18.2104 54.8436C18.4978 54.8436 18.8753 54.9851 18.9139 54.4532C19.0533 52.5614 19.2121 50.6717 19.3751 48.782C19.4094 48.3938 19.27 48.2715 18.886 48.2758C17.4675 48.293 16.0497 48.293 14.6327 48.2758C14.223 48.2758 14.0535 48.3895 14.0771 48.8185C14.1072 49.3268 14.0943 49.8352 14.0771 50.3435C14.0535 51.1093 13.6481 51.5575 12.9896 51.5575C12.3312 51.5575 11.9 51.1007 11.8571 50.3521C11.8237 49.8701 11.8237 49.3863 11.8571 48.9043C11.8914 48.4217 11.7327 48.2608 11.233 48.2608C9.73151 48.2908 8.23006 48.2758 6.72861 48.2715C5.80844 48.2715 5.27221 47.8425 5.28079 47.1476C5.28937 46.4526 5.82774 46.0408 6.75435 46.0387C8.2558 46.0387 9.75725 46.0236 11.2458 46.0387C11.6898 46.0387 11.8657 45.9271 11.8464 45.4595C11.8142 44.6316 11.8464 43.8015 11.8464 42.9714C11.8464 41.6845 11.8464 41.6845 10.5273 41.6845C8.61829 41.6845 8.61829 41.6845 8.59684 43.5591C8.59684 43.6664 8.59684 43.7736 8.59684 43.8809C8.56896 44.5093 8.22577 44.8868 7.61876 44.9533C6.96241 45.0241 6.54629 44.6659 6.40687 44.0396C6.35704 43.6686 6.34482 43.2934 6.37041 42.9199C6.37041 41.6652 6.37041 41.6652 5.08346 41.6866C5.0571 41.6898 5.03045 41.6898 5.00409 41.6866C4.45285 41.5965 4.41853 41.8754 4.45499 42.3301C4.78102 46.271 5.08917 50.2127 5.37945 54.1551C5.41806 54.6655 5.57035 54.8436 6.09371 54.835C8.10136 54.8286 10.109 54.8436 12.1145 54.8436ZM13.7511 33.9992C15.7845 33.9992 17.8265 33.9842 19.847 34.0099C20.3403 34.0099 20.5505 33.8877 20.587 33.3664C20.7414 31.1829 20.9237 29.0015 21.1146 26.8201C21.1468 26.4448 20.9924 26.3568 20.6642 26.3611C19.7547 26.3611 18.8453 26.3954 17.938 26.3611C17.3825 26.3354 17.2366 26.5306 17.183 27.0732C16.9685 29.2182 15.6536 30.6402 13.6396 30.8955C12.9468 30.9517 12.2511 30.9639 11.5568 30.932C8.93574 30.932 7.36351 29.4863 7.1769 26.8738C7.14902 26.4898 7.03319 26.3611 6.65997 26.3697C5.83238 26.408 5.00338 26.4044 4.17615 26.359C3.41685 26.2968 3.2281 26.5735 3.2903 27.2942C3.60346 30.9663 3.86085 34.6427 4.16328 38.3169C4.2598 39.4773 4.30056 39.4173 5.45024 39.4923C6.25458 39.546 6.44763 39.2779 6.39615 38.5186C6.32751 37.534 6.3747 36.5409 6.37899 35.5521C6.37899 34.3831 6.75006 34.0099 7.89974 34.0078L13.7511 33.9992ZM14.4675 36.2342C12.8652 36.2342 11.2501 36.2235 9.65643 36.2342C8.42954 36.2342 8.61829 36.0626 8.60971 37.2959C8.60971 37.9845 8.39522 38.9046 8.73626 39.3036C9.14809 39.7733 10.094 39.3808 10.7997 39.4688C11.5847 39.5674 11.9644 39.3679 11.8721 38.4714C11.8164 37.903 12.1488 37.4482 12.7773 37.326C13.0004 37.275 13.234 37.2976 13.4431 37.3904C13.6523 37.4831 13.8258 37.6412 13.9377 37.8408C14.0875 38.1002 14.1349 38.4062 14.0707 38.6987C13.9763 39.3679 14.2852 39.5052 14.8815 39.4795C15.8403 39.4344 16.8119 39.4559 17.7664 39.4795C18.575 39.4923 19.0405 39.9085 19.0405 40.6013C19.0405 41.2941 18.5943 41.6973 17.7685 41.7059C16.7518 41.7166 15.7373 41.7274 14.7227 41.7059C14.2573 41.693 14.0492 41.7981 14.0793 42.3194C14.1179 43.3596 14.1157 44.4042 14.0793 45.4445C14.0621 45.9486 14.2401 46.088 14.7227 46.0708C16.1405 46.0429 17.5562 46.0387 18.9718 46.0708C19.4609 46.0816 19.6303 45.9121 19.6647 45.4488C19.8791 42.5717 20.1044 39.6968 20.3403 36.8241C20.3789 36.3629 20.218 36.2342 19.7676 36.2406C17.9959 36.2492 16.2306 36.2342 14.4675 36.2342ZM12.1617 26.3676C11.4153 26.3676 10.6603 26.3869 9.9224 26.3676C9.49342 26.3525 9.38188 26.5306 9.39475 26.9338C9.39366 27.3658 9.55337 27.7828 9.8428 28.1036C10.1322 28.4243 10.5307 28.6259 10.9605 28.6691C11.7832 28.7452 12.611 28.7452 13.4336 28.6691C14.2745 28.5897 14.7849 27.9762 14.9351 27.1419C15.0359 26.6035 14.9351 26.3354 14.3152 26.3697C13.6031 26.3954 12.8824 26.3654 12.1617 26.3654V26.3676Z" fill="#CB3F58"/>
<path d="M46.0326 16.1084C48.8835 16.1126 51.6691 16.9618 54.0376 18.5486C56.406 20.1354 58.251 22.3887 59.3393 25.0236C60.4277 27.6586 60.7106 30.557 60.1522 33.3527C59.5939 36.1484 58.2195 38.7159 56.2026 40.7307C54.1856 42.7455 51.6167 44.1173 48.8205 44.6727C46.0242 45.2281 43.1261 44.9422 40.4922 43.8511C37.8584 42.76 35.6071 40.9127 34.0227 38.5427C32.4384 36.1726 31.5921 33.386 31.5908 30.5351C31.5931 26.707 33.1158 23.0366 35.8241 20.3311C38.5324 17.6256 42.2045 16.1067 46.0326 16.1084ZM45.9961 42.7054C52.7055 42.7247 58.205 37.3131 58.2222 30.6703C58.2562 28.2498 57.5698 25.8739 56.2502 23.8445C54.9307 21.8151 53.0375 20.2238 50.8113 19.273C48.5852 18.3222 46.1266 18.0547 43.748 18.5046C41.3695 18.9545 39.1784 20.1014 37.4533 21.7996C35.7282 23.4977 34.547 25.6705 34.0597 28.0416C33.5725 30.4128 33.8012 32.8753 34.7169 35.1161C35.6326 37.357 37.1938 39.2749 39.2022 40.6263C41.2106 41.9777 43.5754 42.7014 45.9961 42.7054Z" fill="#CB3F58"/>
<path d="M47.5103 5.55318C46.9763 5.55318 46.4379 5.58107 45.9102 5.55318C45.2024 5.50814 44.6833 4.98049 44.7605 4.37348C44.8485 3.70855 45.241 3.33104 45.951 3.33533C46.992 3.34391 48.033 3.34391 49.074 3.33533C49.784 3.33533 50.1829 3.69139 50.2558 4.37348C50.3223 5.00408 49.8269 5.48669 49.1126 5.56176C49.0611 5.56176 49.0075 5.56176 48.9539 5.56176H47.5103V5.55318Z" fill="#CB3F58"/>
<path d="M47.5103 8.79419C46.9504 8.79419 46.3885 8.79419 45.8286 8.79419C45.6938 8.79964 45.5592 8.77823 45.4326 8.73121C45.3061 8.68419 45.1902 8.6125 45.0916 8.52031C44.993 8.42811 44.9137 8.31724 44.8584 8.19414C44.803 8.07104 44.7726 7.93817 44.769 7.80323C44.7047 7.19622 45.0415 6.71576 45.6377 6.64497C46.8854 6.49664 48.1462 6.49808 49.3935 6.64926C49.9984 6.72219 50.3137 7.20051 50.2515 7.81181C50.2499 7.94662 50.2211 8.07973 50.1668 8.20312C50.1125 8.32651 50.0338 8.43764 49.9354 8.52982C49.837 8.62199 49.721 8.69331 49.5943 8.73948C49.4676 8.78565 49.3329 8.80572 49.1983 8.79848C48.6321 8.8092 48.0701 8.79419 47.5103 8.79419Z" fill="#CB3F58"/>
<path d="M62.0335 6.18596C62.0334 6.57602 61.8832 6.95109 61.614 7.23342C61.3449 7.51575 60.9774 7.68369 60.5878 7.70242C60.3905 7.71661 60.1923 7.6912 60.0049 7.62771C59.8176 7.56421 59.6448 7.46389 59.4968 7.33266C59.3487 7.20143 59.2284 7.04192 59.1429 6.86352C59.0574 6.68512 59.0084 6.49143 58.9988 6.29383C58.9892 6.09623 59.0193 5.8987 59.0871 5.71287C59.155 5.52703 59.2593 5.35664 59.3939 5.2117C59.5286 5.06676 59.6908 4.9502 59.8712 4.86888C60.0515 4.78755 60.2463 4.7431 60.4441 4.73813C60.6441 4.72628 60.8445 4.75458 61.0334 4.82136C61.2223 4.88815 61.3959 4.99206 61.544 5.12699C61.6921 5.26191 61.8117 5.42512 61.8958 5.60699C61.9799 5.78886 62.0267 5.98571 62.0335 6.18596Z" fill="#CB3F58"/>
<path d="M57.8465 53.7411C57.1494 53.7411 56.4544 53.7411 55.7595 53.7411C55.0645 53.7411 54.702 53.3807 54.6548 52.7222C54.6076 52.0638 54.9873 51.5811 55.6136 51.5554C57.1601 51.4932 58.7152 51.4911 60.2617 51.5554C60.8858 51.5811 61.2826 52.0809 61.2226 52.7265C61.219 52.8686 61.1864 53.0085 61.1268 53.1375C61.0672 53.2665 60.9818 53.382 60.876 53.4768C60.7701 53.5716 60.646 53.6438 60.5112 53.6888C60.3764 53.7339 60.2338 53.751 60.0922 53.7389L57.8465 53.7411Z" fill="#CB3F58"/>
<path d="M35.1919 30.5201C35.2048 25.3723 39.1214 20.9001 44.2671 20.1837C48.6727 19.5724 52.2419 21.061 54.9509 24.5808C55.7875 25.6683 55.7231 26.0222 54.7107 26.9402C52.5358 28.92 52.5165 32.0881 54.6721 34.0936C55.7274 35.0781 55.7918 35.3998 54.9338 36.5109C52.1454 40.1144 48.4561 41.6587 43.9947 40.8286C39.6812 40.0243 36.7963 37.3968 35.5222 33.1305C35.3055 32.2772 35.1945 31.4005 35.1919 30.5201ZM46.4956 38.8231C48.5526 38.7609 50.7362 37.8665 52.5014 35.994C52.7974 35.6787 52.9133 35.477 52.5465 35.0974C51.9104 34.4762 51.4641 33.6869 51.2595 32.8216C51.0708 31.8929 50.6697 31.8736 49.9018 32.1417C47.9177 32.8324 46.1246 32.4741 44.5609 31.0177C43.7437 30.2563 42.7742 30.1104 41.7318 30.5223C40.5671 30.9856 39.4131 31.4789 38.2355 31.9057C37.6671 32.1095 37.6157 32.3798 37.7873 32.9181C38.8833 36.3886 42.2337 38.806 46.4956 38.8231ZM37.487 29.8144C38.6431 29.3533 39.6641 28.9565 40.67 28.5425C42.732 27.676 44.5831 27.9955 46.2232 29.5013C46.6278 29.8956 47.1509 30.1458 47.7118 30.2134C48.7843 30.3292 49.7366 29.8337 50.7362 29.5699C50.9807 29.5056 50.9678 29.2503 51.015 29.0401C51.2595 27.9677 51.6799 26.9338 52.4392 26.1252C52.924 25.6104 52.7653 25.3423 52.3577 24.9219C48.7414 21.1811 42.5082 21.4256 39.2415 25.4688C38.2198 26.7004 37.606 28.2189 37.4848 29.8144H37.487Z" fill="#CB3F58"/>
</g>
<defs>
<clipPath id="clip0_344_570">
<rect width="65.802" height="57.07" fill="white" transform="translate(0.917969)"/>
</clipPath>
</defs>
</svg>
