<svg width="78" height="46" viewBox="0 0 78 46" fill="none" xmlns="http://www.w3.org/2000/svg">
<path d="M39.0011 45.2935H1.891C1.6809 45.2935 1.4708 45.2935 1.2607 45.2935C0.510636 45.2535 0.019 44.7703 9.09194e-05 44.0665C-0.0109995 43.8957 0.0144245 43.7246 0.0746687 43.5645C0.134913 43.4044 0.228594 43.2589 0.349467 43.1379C0.470341 43.0168 0.615632 42.9229 0.775657 42.8624C0.935682 42.8018 1.10676 42.7761 1.27751 42.7869C3.139 42.7701 4.99839 42.787 6.85989 42.7701C7.0952 42.7701 7.53431 42.9802 7.52381 42.4991C7.52381 42.1356 7.83896 41.623 7.11621 41.4381C6.53213 41.2889 6.27581 40.791 6.28631 40.1628C6.28631 35.2086 6.28631 30.2544 6.28631 25.3023C6.28631 24.3611 6.74223 23.9157 7.68979 23.9115C9.52397 23.9115 11.3603 23.8884 13.1944 23.9115C13.7176 23.9115 13.8752 23.7581 13.8415 23.2497C13.8016 22.6194 13.8289 21.9891 13.8415 21.3587C13.8382 20.8679 13.9322 20.3813 14.118 19.9271C14.3039 19.4728 14.5779 19.0598 14.9243 18.7121C15.2706 18.3643 15.6825 18.0887 16.136 17.9011C16.5896 17.7134 17.0758 17.6175 17.5666 17.6189C25.1415 17.6105 32.7163 17.6105 40.2912 17.6189C40.783 17.6159 41.2705 17.7105 41.7255 17.8972C42.1804 18.0839 42.5938 18.3591 42.9417 18.7067C43.2895 19.0544 43.5649 19.4676 43.7519 19.9225C43.9389 20.3774 44.0338 20.8648 44.031 21.3566C44.031 21.5121 44.031 21.6718 44.031 21.8273C44.0772 22.4996 43.7368 23.3799 44.1738 23.7854C44.6108 24.1909 45.4723 23.8926 46.1488 23.901C47.4598 23.9178 48.7687 23.901 50.0798 23.901C51.1303 23.901 51.5757 24.3212 51.5778 25.3591C51.5778 30.2607 51.5778 35.1624 51.5778 40.0661C51.5778 40.7511 51.3425 41.2721 50.6807 41.4612C50.0188 41.6503 50.3697 42.1377 50.334 42.4844C50.2899 42.9172 50.6891 42.7638 50.9118 42.7659C52.1955 42.7806 53.4792 42.747 54.7629 42.7869C55.2819 42.8017 55.3722 42.6 55.3554 42.1566C55.326 41.3457 55.3554 40.5326 55.3554 39.7195C55.3554 38.0156 55.6138 37.7508 57.2862 37.7508C58.5174 37.7508 59.7507 37.7298 60.9819 37.7508C61.4651 37.7613 61.6605 37.6668 61.6584 37.1205C61.6374 31.2503 61.6374 25.3794 61.6584 19.5078C61.6584 18.9825 61.5009 18.8501 60.9966 18.8585C59.1876 18.8859 57.3787 18.8733 55.5697 18.8585C54.5297 18.8585 54.0486 18.4089 54.099 17.3878C54.2314 15.1398 54.4078 12.8938 54.5822 10.6499C54.8246 7.5418 55.076 4.43581 55.3365 1.33192C55.4184 0.363353 55.8323 0.00197894 56.8072 -0.00012207C60.8692 -0.00012207 64.9311 -0.00012207 68.9931 -0.00012207C69.9637 -0.00012207 70.3839 0.375959 70.4638 1.35503C70.7852 5.37426 71.0941 9.3956 71.4008 13.4148C71.5017 14.7217 71.6361 16.0243 71.7013 17.3311C71.7559 18.4215 71.2979 18.8669 70.2159 18.8691C68.4342 18.8691 66.6441 18.8901 64.8709 18.8691C64.354 18.8691 64.146 18.9531 64.1481 19.5393C64.1719 25.3843 64.1719 31.2293 64.1481 37.0743C64.1481 37.629 64.2973 37.7823 64.8457 37.7676C66.2344 37.7277 67.6253 37.7487 69.0141 37.7571C70.0079 37.7571 70.4407 38.1983 70.4491 39.1963C70.4575 40.1943 70.4785 41.1902 70.4491 42.184C70.4302 42.6735 70.5835 42.8143 71.0668 42.7975C72.8211 42.7701 74.5775 42.7849 76.334 42.7975C77.4769 42.7975 78.0148 43.2177 78.0148 44.0812C78.0001 44.9111 77.4664 45.3103 76.3655 45.3103L39.0011 45.2935ZM28.9394 30.1977C32.8683 30.1977 36.7993 30.1788 40.7303 30.2145C41.4026 30.2145 41.5434 30.0212 41.5329 29.3846C41.495 26.8424 41.5224 24.3002 41.5161 21.76C41.5161 20.6024 41.0475 20.1318 39.8962 20.1318C32.5875 20.1318 25.2773 20.1318 17.9658 20.1318C16.8187 20.1318 16.3586 20.6045 16.3544 21.7663C16.3544 24.3338 16.3712 26.9012 16.3396 29.4686C16.3396 30.0485 16.472 30.2166 17.0708 30.2124C21.027 30.183 24.9832 30.1977 28.9394 30.1977ZM28.8533 39.003C32.8452 39.003 36.8182 38.9904 40.7996 39.0177C41.3984 39.0177 41.5455 38.8581 41.5329 38.2761C41.4908 36.6268 41.5013 34.9754 41.5329 33.3261C41.5329 32.8576 41.4299 32.6958 40.9278 32.6958C32.9439 32.7126 24.9538 32.7126 16.9573 32.6958C16.4636 32.6958 16.327 32.8387 16.346 33.3261C16.3754 34.9502 16.388 36.5764 16.346 38.1983C16.327 38.8392 16.4804 39.0387 17.1527 39.0261C21.0459 38.9862 24.9496 39.003 28.8533 39.003ZM62.9106 16.3562C64.6902 16.3562 66.4697 16.3268 68.2493 16.3731C68.9006 16.3899 69.1023 16.2323 69.0456 15.5579C68.7038 11.4399 68.3866 7.3205 68.0938 3.19972C68.0539 2.67236 67.8837 2.49798 67.3375 2.50428C64.8499 2.5316 62.3644 2.50428 59.8768 2.52109C59.2066 2.52109 58.3914 2.25006 57.9039 2.65345C57.4564 3.02533 57.7674 3.84893 57.6665 4.46452C57.6665 4.48974 57.6665 4.51705 57.6665 4.54226C57.3703 8.24424 57.0866 11.9462 56.7694 15.6461C56.7169 16.2764 56.9333 16.3815 57.5005 16.3709C59.2969 16.3352 61.1038 16.3562 62.9106 16.3562ZM13.8394 32.7441C13.8394 30.8532 13.8163 28.9728 13.8521 27.0882C13.8521 26.5209 13.6861 26.3844 13.1461 26.4012C11.8855 26.4411 10.6249 26.4306 9.36429 26.4012C8.92728 26.4012 8.78231 26.5125 8.78441 26.9684C8.80122 30.7895 8.80122 34.6126 8.78441 38.4379C8.78441 38.898 8.93359 39.0114 9.36849 39.003C10.6291 38.9778 11.8897 38.9673 13.1377 39.003C13.6819 39.0198 13.852 38.8791 13.8415 38.316C13.8163 36.4692 13.8394 34.6098 13.8394 32.7504V32.7441ZM49.0671 32.7126C49.0671 30.8007 49.0671 28.8888 49.0671 26.9768C49.0671 26.6155 49.0356 26.3949 48.5754 26.4054C47.214 26.4327 45.8441 26.4285 44.489 26.4054C44.0835 26.4054 44.0226 26.5777 44.0226 26.9222C44.031 30.7727 44.031 34.6245 44.0226 38.4778C44.0226 38.898 44.1465 39.0177 44.5583 39.0093C45.8399 38.9862 47.1257 38.9694 48.4074 39.0093C48.9956 39.0303 49.0839 38.7992 49.0755 38.2887C49.0503 36.4377 49.0671 34.5783 49.0671 32.7189V32.7126ZM28.9373 42.7722C33.7066 42.7722 38.4752 42.7722 43.2431 42.7722C43.7116 42.7722 44.0835 42.8248 44.0625 42.1167C44.0499 41.4528 43.72 41.5032 43.2788 41.5032C33.715 41.5032 24.1512 41.5032 14.5874 41.5032C14.142 41.5032 13.8205 41.4612 13.8079 42.1188C13.7953 42.8332 14.1672 42.7722 14.6315 42.7722C19.3994 42.7722 24.168 42.7743 28.9373 42.7785V42.7722ZM62.9064 41.5116C64.3771 41.5116 65.8478 41.4885 67.306 41.5242C67.8354 41.5368 67.9594 41.3604 67.9573 40.8603C67.9552 40.3603 67.8354 40.23 67.3417 40.23C64.3834 40.2538 61.4245 40.2538 58.4649 40.23C57.967 40.23 57.8619 40.3855 57.8556 40.8603C57.8556 41.3667 57.9859 41.5326 58.509 41.52C59.9734 41.4969 61.442 41.52 62.9064 41.52V41.5116ZM10.6627 41.5242C10.0618 41.3772 10.0744 41.7469 10.0492 42.1861C10.0156 42.6987 10.2257 42.7764 10.6795 42.7869C11.188 42.7975 11.3413 42.6483 11.3413 42.1335C11.3413 41.6188 11.1733 41.4213 10.6627 41.5326V41.5242ZM47.1426 42.7554C47.6447 42.8626 47.8338 42.6945 47.8275 42.1524C47.8275 41.6461 47.6888 41.4759 47.1699 41.4927C46.7287 41.5095 46.4975 41.5663 46.5396 42.0894C46.5669 42.5264 46.5333 42.913 47.1426 42.7638V42.7554Z" fill="#CB3F58"/>
</svg>
