<svg width="288" height="49" viewBox="0 0 288 49" fill="none" xmlns="http://www.w3.org/2000/svg">
<g clip-path="url(#clip0_135_322)">
<path d="M45.1108 0.00268306C46.409 0.0742411 47.2639 0.266295 48.3429 0.490854C52.9982 1.4672 56.9994 3.39791 60.146 7.11289C62.8314 10.286 64.2765 13.9595 65.0284 17.9259C66.0732 23.3494 65.8267 28.7901 63.9909 33.9916C61.5253 40.9773 56.6918 45.5954 49.3438 47.2869C47.8943 47.6298 46.4098 47.8026 44.9204 47.8019C39.1054 47.7751 33.2881 47.7555 27.4708 47.8214C26.9058 47.8274 26.3673 47.8214 26.0029 47.8214C26.0029 47.6393 26.0029 47.0697 26.0029 46.3935C26.0029 45.2528 26.0029 44.1598 26.0029 43.1008C26.0029 42.6758 26.0029 42.3882 26.0029 42.1559C26.1779 42.1559 26.7558 42.1534 27.19 42.1559C33.21 42.1925 39.2348 42.1904 45.2548 41.9854C50.3666 41.8121 54.4898 39.6251 57.0164 34.9337C58.5886 32.0047 59.255 28.9097 59.3575 25.6024C59.465 22.0582 59.3575 18.5727 58.1028 15.2068C56.0961 9.77586 52.2195 6.71015 46.4461 6.04868C41.9519 5.53366 37.443 5.96569 32.9463 5.80459C32.1855 5.81911 32.1855 6.45555 32.1855 6.91015C32.1855 13.0123 32.1855 19.0934 32.1505 25.2045C32.1569 25.8009 32.1855 26.0033 32.1855 26.5488C32.0036 26.5488 31.426 26.5683 30.7371 26.586C29.3901 26.586 28.5912 26.586 27.3194 26.586C26.6504 26.586 26.3666 26.586 26.0029 26.586C26.0029 26.4042 26.0029 25.9757 26.0029 25.3851C26.0029 17.3659 26.0054 9.39264 26.0029 1.41593C26.0029 0.927762 26.0029 0.454843 26.0029 0.000244141L45.1108 0.00268306Z" fill="#FFF5F7"/>
<path d="M242.819 48.236C237.549 49.2155 235.186 48.3335 234.014 48.0021C228.335 46.399 224.407 42.8297 222.042 37.511C220.891 34.9341 220.381 32.117 220.555 29.3003C220.828 24.7637 222.385 20.7388 225.509 17.3619C228.06 14.6185 231.09 12.7011 234.799 11.9385C240.419 10.7836 245.324 12.2211 249.631 15.9464C252.77 18.6605 254.719 22.0764 255.61 26.0891C255.947 27.6046 256.044 29.1736 256.263 30.7183C256.373 31.4906 256.02 31.6661 255.303 31.6636C249.539 31.6376 243.773 31.6376 238.005 31.6636C237.332 31.6636 237.064 31.4882 237.096 30.7792C237.157 29.643 237.157 28.5044 237.096 27.3682C237.043 26.5228 237.393 26.3669 238.146 26.3742C241.557 26.4059 244.968 26.3742 248.379 26.4034C249.3 26.4034 249.729 26.3181 249.317 25.2193C247.704 20.941 244.81 17.9856 240.302 17.128C236.891 16.4824 233.695 17.4058 231.022 19.7691C228.349 22.1324 227.073 25.0658 226.732 28.6011C226.313 32.9866 227.307 36.8312 230.476 39.884C235.069 44.3037 242.505 44.3768 247 39.9693C247.778 39.2066 248.395 38.2952 248.813 37.2893C248.991 36.8653 249.195 36.5778 249.763 36.5925C251.426 36.6379 253.091 36.6379 254.758 36.5925C255.428 36.573 255.403 36.9311 255.245 37.3234C252.984 43.0879 248.089 47.2566 242.819 48.236Z" fill="#FFF5F7"/>
<path d="M89.542 48.236C84.2721 49.2155 81.9088 48.3335 80.7368 48.0021C75.0576 46.399 71.1301 42.8297 68.7644 37.511C67.6137 34.9341 67.1038 32.117 67.2782 29.3003C67.551 24.7637 69.1079 20.7388 72.2314 17.3619C74.7823 14.6185 77.8132 12.7011 81.5214 11.9385C87.1422 10.7836 92.0466 12.2211 96.3542 15.9464C99.4923 18.6605 101.441 22.0764 102.333 26.0891C102.669 27.6046 102.767 29.1736 102.986 30.7183C103.096 31.4906 102.742 31.6661 102.026 31.6636C96.2616 31.6376 90.4955 31.6376 84.7277 31.6636C84.0552 31.6636 83.7872 31.4882 83.8189 30.7792C83.8799 29.643 83.8799 28.5044 83.8189 27.3682C83.7653 26.5228 84.1161 26.3669 84.869 26.3742C88.28 26.4059 91.6909 26.3742 95.1019 26.4034C96.0229 26.4034 96.4517 26.3181 96.0399 25.2193C94.427 20.941 91.5326 17.9856 87.0252 17.128C83.6142 16.4824 80.4177 17.4058 77.745 19.7691C75.0722 22.1324 73.7955 25.0658 73.4544 28.6011C73.0354 32.9866 74.0294 36.8312 77.1992 39.884C81.7918 44.3037 89.2277 44.3768 93.7229 39.9693C94.5008 39.2066 95.1173 38.2952 95.5356 37.2893C95.7134 36.8653 95.9181 36.5778 96.4858 36.5925C98.149 36.6379 99.8139 36.6379 101.48 36.5925C102.15 36.573 102.126 36.9311 101.968 37.3234C99.7067 43.0879 94.812 47.2566 89.542 48.236Z" fill="#FFF5F7"/>
<path d="M169.087 48.0166C164.377 46.7619 160.925 43.8991 158.415 39.8474C156.474 36.769 155.549 33.1591 155.769 29.5268C156.066 24.5004 157.791 20.0711 161.536 16.4993C163.635 14.4519 166.212 12.9605 169.033 12.1601C172.792 11.0386 176.83 11.3209 180.396 12.9543C186.597 15.7343 190.127 20.6655 191.155 27.2487C192.096 33.2593 190.483 38.7266 186.256 43.1804C183.281 46.316 179.595 48.2578 175.153 48.4576C175.203 48.4553 171.321 48.5813 169.087 48.0166ZM173.584 17.0061C170.11 16.9184 167.32 18.4679 165.183 20.975C162.698 23.8987 161.587 27.3535 161.941 31.281C162.255 34.7821 163.519 37.7521 166.124 40.1324C171.077 44.6568 177.482 44.0112 181.878 39.4527C184.667 36.5606 185.737 32.8744 185.247 28.7471C184.828 25.2411 183.559 22.259 180.881 19.8762C178.888 18.0497 176.288 17.0271 173.584 17.0061Z" fill="#FFF5F7"/>
<path d="M265.324 0.0197754C265.307 0.546039 265.276 1.0723 265.276 1.59857C265.276 16.5305 265.283 31.4632 265.298 46.3967C265.298 47.4298 265.103 47.8586 263.98 47.7489C262.763 47.656 261.541 47.656 260.325 47.7489C259.44 47.805 259.25 47.4736 259.258 46.6477C259.294 42.0624 259.275 37.4771 259.275 32.8917C259.275 22.4233 259.275 11.9541 259.275 1.48405C259.275 0.996774 259.243 0.509493 259.226 0.0222118L265.324 0.0197754Z" fill="#FFF5F7"/>
<path d="M276.776 0.0197754C276.759 0.546039 276.727 1.0723 276.727 1.59857C276.727 16.5305 276.734 31.4632 276.749 46.3967C276.749 47.4298 276.556 47.8586 275.433 47.7489C274.217 47.6561 272.995 47.6561 271.779 47.7489C270.894 47.8025 270.706 47.4736 270.711 46.6477C270.748 42.0624 270.728 37.4771 270.728 32.8917C270.728 22.4233 270.728 11.9541 270.728 1.48405C270.728 0.996774 270.697 0.509493 270.68 0.0222118L276.776 0.0197754Z" fill="#FFF5F7"/>
<path d="M0 26.3328C4.78997 26.3523 9.57994 26.401 14.3748 26.3693C14.941 26.3693 15.5473 26.3693 15.8147 26.3693C15.8201 26.7305 15.8249 27.1921 15.8147 27.7361C15.7384 32.0794 15.7384 36.4243 15.8147 40.7709C15.8248 41.3145 15.8147 41.7323 15.8147 42.1353C15.3998 42.1353 14.9398 42.1392 14.3748 42.1353C9.58481 42.1036 4.79484 42.1499 0 42.1694V26.3328Z" fill="#FFF5F7"/>
<path d="M287.983 47.7733C286.278 47.7562 284.572 47.7026 282.867 47.7416C282.109 47.7562 281.914 47.5101 281.914 46.767C281.935 35.657 281.935 24.5478 281.914 13.4395C281.914 12.7085 282.104 12.4649 282.864 12.4649C284.57 12.5063 286.275 12.4503 287.981 12.4332L287.983 47.7733Z" fill="#FFF5F7"/>
<path d="M287.983 7.32893C286.277 7.31188 284.572 7.25828 282.884 7.29726C282.136 7.31188 281.909 7.08529 281.924 6.33488C281.958 4.23226 281.909 2.12477 281.892 0.0197198C283.702 0.0197198 285.515 0.0513931 287.325 0.000228569C287.912 -0.0143899 288.01 0.134231 288 0.689731C287.961 2.90199 287.983 5.11668 287.983 7.32893Z" fill="#FFF5F7"/>
<path d="M110.352 17.0746C111.738 15.4446 113.351 14.0876 115.407 13.4858C120.414 12.0239 125.487 13.1203 128.988 17.691C129.504 18.3635 129.624 18.495 130.228 17.7373C132.565 14.8136 135.539 13.1081 139.401 12.9498C142.325 12.8304 145.024 13.2957 147.456 14.9111C150.238 16.7603 151.841 19.4403 152.446 22.6832C152.814 24.702 152.988 26.7515 152.965 28.8035C152.94 34.732 152.94 40.6606 152.965 46.5892C152.965 47.4858 152.762 47.8074 151.827 47.7489C150.652 47.6624 149.472 47.6624 148.296 47.7489C147.322 47.822 147.173 47.4419 147.178 46.5746C147.212 40.1595 147.254 33.7445 147.164 27.327C147.134 25.2292 146.983 23.0876 145.843 21.1824C145.385 20.3988 144.753 19.7309 143.996 19.2303C143.239 18.7297 142.377 18.4098 141.477 18.2952C136.234 17.5448 132.426 20.1761 131.731 25.6045C131.288 29.0422 131.592 32.48 131.524 35.9153C131.454 39.4457 131.466 42.9809 131.524 46.5112C131.546 47.5613 131.212 47.8366 130.226 47.7562C129.171 47.6781 128.113 47.6781 127.058 47.7562C126.201 47.8123 125.969 47.5126 125.974 46.6696C126.008 40.296 126.057 33.9199 125.957 27.5463C125.923 25.256 125.784 22.9171 124.364 20.8973C123.258 19.2795 121.669 18.5023 119.871 18.2733C113.846 17.5107 110.427 21.6112 110.352 26.9445C110.259 33.4375 110.301 39.9354 110.352 46.4357C110.352 47.5516 110.03 47.8293 108.992 47.7489C107.857 47.6745 106.717 47.6745 105.581 47.7489C104.79 47.7903 104.541 47.5345 104.553 46.7281C104.597 43.685 104.57 40.6371 104.57 37.594C104.57 30.0411 104.585 22.4883 104.553 14.9354C104.553 14.0291 104.714 13.6125 105.732 13.6953C106.908 13.77 108.087 13.7741 109.263 13.7075C109.916 13.6831 110.118 13.9292 110.084 14.5529C110.042 15.3496 110.084 16.1536 110.084 16.9528L110.352 17.0746Z" fill="#FFF5F7"/>
<path d="M190.04 12.4965C191.989 12.4965 193.782 12.5282 195.565 12.4819C196.26 12.4648 196.403 12.8498 196.589 13.3809C198.348 18.4267 200.141 23.4603 201.902 28.5037C203.15 32.0779 204.366 35.6643 205.603 39.2433C205.713 39.4963 205.842 39.7406 205.988 39.9743C206.719 38.9753 206.914 37.857 207.277 36.8069C209.845 29.384 212.402 21.957 214.947 14.526C215.115 14.0387 215.303 13.5515 215.488 13.0642C215.543 12.8742 215.664 12.7101 215.829 12.6011C215.994 12.4922 216.193 12.4456 216.389 12.4697C218.173 12.5038 219.959 12.4843 221.905 12.4843C221.218 14.509 220.592 16.4532 219.895 18.3731C218.319 22.7196 216.691 27.0491 215.11 31.3957C213.215 36.5933 211.332 41.804 209.463 47.0276C209.299 47.4759 209.073 47.7415 208.51 47.7269C206.848 47.683 205.182 47.6806 203.52 47.7269C202.899 47.7439 202.699 47.4345 202.519 46.9399C200.44 41.1624 198.353 35.3898 196.257 29.622C194.206 23.9817 192.154 18.3317 190.04 12.4965Z" fill="#FFF5F7"/>
<path d="M248.114 0.314306L244.289 6.92671C244.101 7.25319 243.801 7.28242 243.455 7.28242C241.47 7.28242 239.484 7.28242 237.281 7.28242C237.995 6.04229 238.634 4.92155 239.282 3.80567C239.742 3.01384 240.351 2.27561 240.651 1.42531C241.016 0.387398 241.684 0.280196 242.6 0.30456C244.345 0.348416 246.077 0.314306 248.114 0.314306Z" fill="#FFF5F7"/>
</g>
<defs>
<clipPath id="clip0_135_322">
<rect width="288" height="48.7476" fill="white"/>
</clipPath>
</defs>
</svg>
