<svg width="193" height="193" viewBox="0 0 193 193" fill="none" xmlns="http://www.w3.org/2000/svg">
<circle cx="96.7291" cy="96.7292" r="92.7708" fill="#CB3F58" stroke="#863644" stroke-width="7"/>
<g clip-path="url(#clip0_147_405)">
<path d="M120.351 50.1369C122.839 50.2741 124.478 50.6423 126.547 51.0728C135.472 52.9445 143.142 56.6459 149.175 63.7679C154.323 69.8512 157.094 76.8936 158.535 84.4977C160.538 94.8953 160.065 105.326 156.546 115.297C151.819 128.69 142.553 137.543 128.466 140.786C125.687 141.443 122.841 141.775 119.986 141.773C108.838 141.722 97.6853 141.684 86.5327 141.811C85.4496 141.822 84.4173 141.811 83.7188 141.811C83.7188 141.462 83.7188 140.37 83.7188 139.073C83.7188 136.887 83.7188 134.791 83.7188 132.761C83.7188 131.946 83.7188 131.395 83.7188 130.949C84.0542 130.949 85.162 130.945 85.9945 130.949C97.5355 131.02 109.086 131.015 120.627 130.622C130.427 130.29 138.331 126.097 143.175 117.104C146.189 111.488 147.467 105.555 147.663 99.2143C147.869 92.4199 147.663 85.7377 145.258 79.2848C141.411 68.8732 133.979 62.9958 122.911 61.7277C114.295 60.7404 105.651 61.5686 97.0301 61.2598C95.5714 61.2876 95.5714 62.5078 95.5714 63.3793C95.5714 75.0778 95.5714 86.736 95.5044 98.4516C95.5166 99.595 95.5714 99.983 95.5714 101.029C95.2228 101.029 94.1154 101.066 92.7946 101.1C90.2123 101.1 88.6808 101.1 86.2426 101.1C84.96 101.1 84.416 101.1 83.7188 101.1C83.7188 100.752 83.7188 99.9301 83.7188 98.7979C83.7188 83.4242 83.7234 68.1385 83.7188 52.8462C83.7188 51.9104 83.7188 51.0037 83.7188 50.1322L120.351 50.1369Z" fill="#FFE5EA"/>
<path d="M33.8677 100.615C43.0506 100.652 52.2335 100.746 61.4258 100.685C62.5113 100.685 63.6736 100.685 64.1862 100.685C64.1965 101.377 64.2057 102.262 64.1862 103.305C64.0399 111.632 64.0399 119.962 64.1862 128.294C64.2057 129.337 64.1862 130.138 64.1862 130.91C63.3908 130.91 62.509 130.918 61.4258 130.91C52.2428 130.849 43.0599 130.938 33.8677 130.975V100.615Z" fill="#FFE5EA"/>
</g>
<defs>
<clipPath id="clip0_147_405">
<rect width="125.724" height="93.6333" fill="white" transform="translate(33.8677 50.1322)"/>
</clipPath>
</defs>
</svg>
