<svg width="183" height="136" viewBox="0 0 183 136" fill="none" xmlns="http://www.w3.org/2000/svg">
<g opacity="0.5" clip-path="url(#clip0_132_265)">
<path d="M125.695 0.281305C129.298 0.479894 131.671 1.01288 134.665 1.63608C147.585 4.34564 158.689 9.70379 167.421 20.0136C174.874 28.8197 178.884 39.0144 180.971 50.022C183.87 65.0736 183.186 80.1726 178.092 94.6077C171.249 113.995 157.835 126.811 137.443 131.505C133.42 132.457 129.3 132.936 125.167 132.934C109.029 132.86 92.8847 132.806 76.7403 132.989C75.1724 133.005 73.678 132.989 72.6668 132.989C72.6668 132.483 72.6668 130.902 72.6668 129.026C72.6668 125.86 72.6668 122.827 72.6668 119.888C72.6668 118.708 72.6668 117.91 72.6668 117.266C73.1523 117.266 74.756 117.259 75.9612 117.266C92.6679 117.367 109.388 117.361 126.095 116.792C140.281 116.311 151.724 110.242 158.736 97.2225C163.099 89.0938 164.948 80.5045 165.233 71.3259C165.531 61.4902 165.233 51.8171 161.751 42.4759C156.182 27.404 145.423 18.896 129.401 17.0602C116.928 15.6309 104.415 16.8299 91.9362 16.3828C89.8246 16.4231 89.8246 18.1894 89.8246 19.451C89.8246 36.3857 89.8246 53.2622 89.7276 70.2217C89.7454 71.8769 89.8246 72.4386 89.8246 73.9526C89.32 73.9526 87.7169 74.0067 85.805 74.0558C82.0668 74.0558 79.8498 74.0558 76.3202 74.0558C74.4635 74.0558 73.676 74.0558 72.6667 74.0558C72.6667 73.5511 72.6668 72.3621 72.6668 70.723C72.6668 48.468 72.6735 26.3405 72.6668 4.20338C72.6668 2.8486 72.6668 1.53615 72.6668 0.274536L125.695 0.281305Z" fill="#FFE5EA"/>
<path d="M0.502441 73.3534C13.7956 73.4075 27.0888 73.5427 40.3956 73.4548C41.967 73.4548 43.6495 73.4548 44.3916 73.4548C44.4065 74.4573 44.4198 75.7382 44.3916 77.248C44.1798 89.3016 44.1798 101.36 44.3916 113.422C44.4197 114.931 44.3916 116.09 44.3916 117.209C43.2401 117.209 41.9636 117.22 40.3956 117.209C27.1024 117.121 13.8092 117.249 0.502441 117.303V73.3534Z" fill="#FFE5EA"/>
</g>
<defs>
<clipPath id="clip0_132_265">
<rect width="181.998" height="135.544" fill="white" transform="translate(0.502441 0.274536)"/>
</clipPath>
</defs>
</svg>
