<svg width="58" height="48" viewBox="0 0 58 48" fill="none" xmlns="http://www.w3.org/2000/svg">
<g clip-path="url(#clip0_344_579)">
<path d="M0.930176 32.8968V20.1167C0.930176 19.2737 1.44362 18.6672 2.29451 18.5999C2.67791 18.5696 2.82589 18.4093 2.95818 18.0786C4.5613 14.0846 6.17563 10.0948 7.80118 6.10901C7.96597 5.70206 7.97606 5.27718 8.07472 4.86463C8.68345 2.32542 11.0769 0.628125 13.7596 0.843369C16.208 1.04292 18.2809 3.14267 18.4804 5.63928C18.5869 6.97783 18.541 8.31862 18.5152 9.65717C18.4939 10.7569 17.7562 11.4195 16.6318 11.4228C14.3426 11.4318 12.0534 11.4352 9.76416 11.4161C9.42784 11.4161 9.28547 11.5215 9.16439 11.8264C8.3348 13.9131 7.49139 15.9938 6.63415 18.0685C6.46935 18.4665 6.53325 18.5685 6.97047 18.5674C11.2305 18.5547 15.4924 18.5547 19.7562 18.5674C20.2046 18.5674 20.2685 18.4116 20.2674 18.0203C20.2528 14.7255 20.2584 11.4318 20.2596 8.13701C20.2596 4.3792 22.5925 1.5743 26.2875 0.893817C26.581 0.846149 26.8781 0.824764 27.1754 0.829916C29.0689 0.831037 30.9747 0.887091 32.8704 0.818706C36.4186 0.706599 40.0878 3.56307 40.099 8.01145C40.1069 11.3242 40.1102 14.6381 40.0901 17.9497C40.0901 18.4306 40.1966 18.5865 40.7022 18.5775C42.5071 18.5453 44.3124 18.5453 46.118 18.5775C46.627 18.5865 46.6909 18.4239 46.6214 17.9822C46.3602 16.332 46.1404 14.6751 45.877 13.0248C45.6808 11.7917 46.3904 10.8825 47.6393 10.8735C49.8358 10.8586 52.032 10.8586 54.2278 10.8735C55.4285 10.8814 56.1336 11.6504 55.9879 12.8589C55.7838 14.554 55.5327 16.2445 55.2569 17.9306C55.1773 18.4138 55.2222 18.6459 55.7659 18.5663C55.9151 18.5544 56.0651 18.5544 56.2143 18.5663C57.3354 18.5909 57.9991 19.2625 57.9991 20.3947C57.9991 27.8588 57.9991 35.3221 57.9991 42.7846C57.9991 43.659 57.9991 44.5346 57.9991 45.409C57.9991 46.3956 57.3421 47.1299 56.4374 47.1792C55.4453 47.2319 54.7043 46.585 54.5978 45.5649C54.5826 45.3604 54.5781 45.1554 54.5843 44.9505C54.5843 39.5347 54.5753 34.1188 54.5955 28.7029C54.5955 28.1828 54.4453 28.0662 53.9453 28.0684C49.5163 28.0886 45.087 28.0886 40.6573 28.0684C40.1921 28.0684 40.0004 28.0953 40.0643 28.6794C40.3255 31.0908 38.3121 33.1345 35.6832 33.1827C34.5666 33.2029 33.45 33.2029 32.3334 33.1827C31.968 33.176 31.8603 33.2858 31.8626 33.6524C31.8783 35.8669 31.8783 38.0814 31.8626 40.2959C31.8626 40.686 31.9747 40.797 32.3614 40.7992C33.6585 40.8093 34.9702 40.6568 36.2426 41.0436C38.0363 41.5884 39.404 42.5985 39.9421 44.483C40.0643 44.9079 40.1394 45.3507 40.0407 45.8036C39.8602 46.6287 39.21 47.1758 38.386 47.1792C37.5621 47.1825 36.7863 46.6444 36.7145 45.8339C36.6237 44.8059 35.9197 44.5279 35.1372 44.2992C34.8117 44.2188 34.4767 44.1837 34.1417 44.1949C31.499 44.1867 28.8563 44.1867 26.2135 44.1949C25.6915 44.1771 25.1716 44.2711 24.6889 44.4707C24.1429 44.7151 23.7405 45.0312 23.6508 45.7162C23.5207 46.7039 22.699 47.2801 21.745 47.1736C20.8694 47.0805 20.1979 46.2823 20.2708 45.3171C20.4244 43.2644 21.6598 42.0357 23.4591 41.2611C24.7315 40.7129 26.0768 40.788 27.4142 40.788C28.4557 40.788 28.4557 40.788 28.4557 39.7701C28.4557 37.76 28.4433 35.7499 28.4657 33.7399C28.4657 33.3015 28.3447 33.1793 27.9052 33.1793C26.6407 33.1849 25.3716 33.278 24.1115 33.1379C21.6856 32.8677 20.1049 30.9596 20.2853 28.5168C20.3167 28.0976 20.1845 28.0751 19.8571 28.0751C14.8317 28.0819 9.80639 28.08 4.78103 28.0695C4.3326 28.0695 4.23059 28.2052 4.23171 28.6301C4.24367 34.0859 4.24367 39.5391 4.23171 44.9897C4.23885 45.2867 4.2148 45.5835 4.15996 45.8754C4.10198 46.1901 3.94983 46.4799 3.72364 46.7063C3.49744 46.9327 3.20785 47.0851 2.89316 47.1433C2.20595 47.298 1.61178 47.076 1.15551 46.5178C0.952597 46.2689 0.931297 45.9886 0.931297 45.6826C0.936528 41.421 0.936155 37.1591 0.930176 32.8968ZM30.1899 18.5651C32.144 18.5651 34.098 18.5517 36.0509 18.5741C36.5105 18.5797 36.6899 18.5069 36.6854 17.9788C36.6562 14.6482 36.6753 11.3163 36.6686 7.98567C36.6686 5.87358 35.1529 4.30185 33.0442 4.26374C31.1279 4.22786 29.2113 4.22786 27.2942 4.26374C25.1956 4.30185 23.7068 5.83323 23.7001 7.93746C23.6878 11.3007 23.7001 14.6728 23.6867 18.0416C23.6867 18.4586 23.7988 18.5786 24.2169 18.5741C26.209 18.5528 28.2001 18.5651 30.1899 18.5651ZM29.3828 24.6436H53.7771C53.9262 24.6436 54.0765 24.6335 54.2256 24.6436C54.4879 24.6649 54.591 24.5572 54.5843 24.2915C54.5731 23.7523 54.5843 23.212 54.5843 22.6727C54.5843 21.9541 54.5843 21.9541 53.8635 21.9541H4.95928C4.84724 21.9598 4.735 21.9598 4.62296 21.9541C4.32924 21.9227 4.22835 22.0561 4.23507 22.3398C4.26517 22.8787 4.26218 23.4189 4.2261 23.9575C4.16893 24.5337 4.37408 24.6581 4.93125 24.657C13.0821 24.6383 21.233 24.6338 29.3839 24.6436H29.3828ZM30.1899 28.0796C28.3663 28.0796 26.5428 28.0796 24.7192 28.0796C24.0263 28.0796 23.7102 28.3419 23.6967 28.898C23.6889 29.4787 24.0196 29.7579 24.7405 29.7579C28.3697 29.7579 31.9982 29.7579 35.626 29.7579C36.284 29.7579 36.6551 29.4552 36.6663 28.9327C36.6775 28.3902 36.2964 28.0807 35.6047 28.0796C33.802 28.0774 31.9971 28.0774 30.1899 28.0796ZM13.3549 7.99352C13.8303 7.92065 14.6643 8.27378 15.0163 7.86347C15.3224 7.50585 15.0993 6.69644 15.1105 6.08659C15.1116 6.06792 15.1116 6.0492 15.1105 6.03053C15.0074 5.00812 14.2708 4.294 13.2944 4.25925C12.2944 4.22674 11.5007 4.86014 11.3706 5.88479C11.2933 6.48905 11.346 7.10787 11.3314 7.71998C11.3236 8.00921 11.5175 7.98791 11.7058 7.98903L13.3549 7.99352ZM50.9588 18.5651C51.183 18.4317 51.6628 18.8443 51.7536 18.2468C51.9363 17.0562 52.1135 15.8645 52.2984 14.6751C52.341 14.3993 52.2749 14.2603 51.9621 14.2681C51.2753 14.2838 50.5881 14.2838 49.9005 14.2681C49.581 14.2603 49.5451 14.3802 49.5933 14.6672C49.7648 15.7098 49.9106 16.7558 50.0574 17.8062C50.1606 18.564 50.1539 18.564 50.9588 18.5651Z" fill="#CB3F58"/>
</g>
<defs>
<clipPath id="clip0_344_579">
<rect width="57.07" height="46.3739" fill="white" transform="translate(0.930176 0.818604)"/>
</clipPath>
</defs>
</svg>
