<svg width="45" height="42" viewBox="0 0 45 42" fill="none" xmlns="http://www.w3.org/2000/svg">
<path d="M41.0175 28.7648L41.0176 28.7649C42.1028 29.3183 43.1923 29.327 43.7154 32.0551C44.2602 32.0595 44.2429 34.2385 43.1317 36.9537C42.5696 39.1285 38.1899 41.8177 36.0108 41.8004C33.8317 41.7831 32.1886 42.8596 22.9578 38.9727C12.0971 34.5279 5.106 23.0315 4.56556 22.4824C4.02945 21.3885 0.255085 16.4553 0.298372 11.0076C0.341658 5.55991 3.08705 2.8577 4.18524 1.77682C5.28344 0.695939 6.37298 0.704596 6.91775 0.708925L9.09696 0.72624C9.64173 0.730569 10.7312 0.739226 11.263 2.37786C12.3352 4.5656 14.4711 10.0306 14.4667 10.5754C14.4624 11.1201 15.0029 11.6692 14.4538 12.2097C13.9047 12.7501 13.9003 13.2949 13.3512 13.8353L11.7039 15.4567L11.7039 15.4567C11.1548 15.9971 10.6057 16.5376 11.1418 17.6314C11.6779 18.7253 13.8267 22.556 17.0737 25.3058C21.4016 29.1538 24.6614 30.2693 25.7466 30.8228C26.8362 30.8314 27.3811 30.8357 27.9301 30.2953C28.4836 29.2101 30.6798 27.0483 31.2333 25.9631C31.7867 24.8779 32.3316 24.8822 33.4168 25.4357C34.5063 25.4443 39.932 28.2113 41.0175 28.7648Z" fill="#FFE5EA"/>
</svg>
