<svg width="76" height="66" viewBox="0 0 76 66" fill="none" xmlns="http://www.w3.org/2000/svg">
<g clip-path="url(#clip0_344_565)" filter="url(#filter0_d_344_565)">
<path d="M18.1739 7.01053H30.6371C32.3897 7.01053 33.3517 7.95695 33.3517 9.68621C33.3517 14.909 33.3517 20.1312 33.3517 25.3528C33.3517 27.0353 32.378 27.9953 30.678 27.9992C30.5572 27.9992 30.4345 27.9992 30.3138 27.9992C29.79 28.0421 28.9857 27.7617 28.8046 28.12C28.5397 28.6458 28.7072 29.3897 28.6916 30.042C28.6916 30.3925 28.9487 30.3185 29.1532 30.3302C29.7082 30.3614 30.2632 30.2815 30.8162 30.4529C32.1696 30.8735 33.1959 32.0303 33.3478 33.3603C33.4433 34.0629 33.3211 34.7779 32.9976 35.4089C32.6742 36.0399 32.1649 36.5564 31.5387 36.889C31.3749 36.9561 31.2324 37.0667 31.1268 37.2087C31.0211 37.3508 30.9561 37.519 30.9389 37.6952C30.3157 42.1352 28.0179 45.432 24.0764 47.5547C23.5837 47.8195 23.8154 48.1019 23.9109 48.3881C25.0598 51.8584 26.2165 55.3253 27.3811 58.789C27.5427 59.27 27.6323 59.7355 27.311 60.1756C27.196 60.3329 27.0434 60.459 26.8672 60.5423C26.691 60.6256 26.4968 60.6636 26.3022 60.6527C20.91 60.6527 15.5177 60.6527 10.1255 60.6527C9.11088 60.6527 8.6552 59.9341 8.99794 58.9C10.1371 55.4123 11.2764 51.9401 12.4662 48.4894C12.6609 47.9052 12.5441 47.6871 12.0261 47.393C8.36115 45.3152 6.16062 42.1936 5.50241 38.0145C5.42257 37.5024 5.30768 37.1149 4.76242 36.8227C4.09667 36.4555 3.57388 35.8749 3.27821 35.1744C2.98255 34.4739 2.93121 33.6943 3.13247 32.9611C3.31881 32.2009 3.75752 31.5264 4.37689 31.0478C4.99626 30.5692 5.75966 30.3148 6.54231 30.3263C7.6971 30.3263 7.6971 30.3263 7.6971 29.1229C7.6971 27.9914 7.6971 27.9233 6.54426 28.0051C3.92505 28.194 2.94747 27.0684 3.00005 24.5057C3.10715 19.5769 3.03121 14.6442 3.03121 9.70568C3.03315 7.9589 3.97373 7.01053 5.71273 7.01053H18.1739ZM18.1895 25.6604H30.0684C30.9467 25.6604 31.0168 25.5864 31.0187 24.6868V10.3366C31.0187 9.3941 30.9584 9.33374 30.0334 9.33374H6.34952C5.42257 9.33374 5.36415 9.3941 5.36415 10.3366C5.36415 15.0973 5.36415 19.8586 5.36415 24.6206C5.36415 25.6137 5.40894 25.6604 6.38652 25.6604H18.1895ZM18.2616 37.3213C14.9861 37.3213 11.7106 37.3213 8.43515 37.3096C7.91325 37.3096 7.76525 37.4401 7.85094 37.9639C8.6922 43.0095 13.4866 46.8926 18.5907 46.6414C20.9716 46.5307 23.2458 45.6206 25.0457 44.0581C26.8457 42.4956 28.0664 40.3719 28.5105 38.0301C28.6254 37.4459 28.4463 37.3037 27.866 37.3076C24.6684 37.3349 21.465 37.3213 18.2635 37.3213H18.2616ZM18.1895 58.3119C20.1797 58.3119 22.168 58.3119 24.1562 58.3119C24.5613 58.3119 24.7288 58.2613 24.571 57.7959C23.5818 54.8956 22.6087 51.9882 21.6519 49.0736C21.5292 48.7017 21.3618 48.5946 20.9781 48.6842C19.1549 49.1126 17.2572 49.1126 15.434 48.6842C15.0036 48.5829 14.8498 48.725 14.7154 49.1165C13.7768 51.9947 12.8342 54.8554 11.8586 57.716C11.6892 58.2146 11.7632 58.3295 12.287 58.3236C14.2519 58.2983 16.2168 58.3119 18.1895 58.3119ZM18.2791 32.6554H11.2024C9.74572 32.6554 8.28131 32.6554 6.83247 32.6554C5.93278 32.6554 5.36415 33.1305 5.37389 33.8335C5.38362 34.5365 5.9581 34.9747 6.85778 34.9883H29.2895C29.4843 34.9962 29.6794 34.9923 29.8737 34.9766C30.1666 34.9545 30.4417 34.8279 30.6491 34.6199C30.8564 34.4118 30.9821 34.1362 31.0032 33.8433C31.0187 33.2474 30.5202 32.7313 29.8464 32.6612C29.6518 32.6514 29.4568 32.6514 29.2622 32.6612L18.2791 32.6554ZM18.1934 30.3185H24.7482C26.3743 30.3185 26.3373 30.3185 26.384 28.7042C26.4015 28.0557 26.1718 27.9681 25.6051 27.972C20.9684 27.9934 16.3317 27.9837 11.695 27.9837C10.03 27.9837 10.0631 27.9837 10.0242 29.635C10.0106 30.2504 10.2384 30.3341 10.77 30.3283C13.2315 30.3127 15.7086 30.3263 18.1895 30.3263L18.1934 30.3185Z" fill="#CB3F58"/>
<path d="M56.6656 60.6429C52.9013 60.6429 49.1351 60.5942 45.3708 60.6721C44.2258 60.6975 43.4235 59.7822 44.1265 58.6001C45.5305 56.2244 47.5013 54.6256 50.1828 53.9459C50.6774 53.8194 50.8605 53.6344 50.8605 53.0891C50.8371 45.3633 50.8371 37.6387 50.8605 29.9155C50.8605 29.3312 50.7378 29.154 50.1205 29.1365C45.5422 28.9982 41.2132 25.1113 40.5083 20.5467C40.4254 20.0448 40.3753 19.5381 40.3583 19.0297C40.3311 17.8613 40.703 17.5029 41.8558 17.5029C48.7807 17.5029 55.7042 17.5029 62.6264 17.5029C63.345 17.5029 64.2778 17.8184 64.7257 17.3627C65.1346 16.946 64.8328 16.0229 64.8367 15.3238C64.8484 12.987 64.8484 10.6547 64.8367 8.32696C64.8367 7.32406 64.4063 6.54512 63.4833 6.09333C62.6342 5.67854 61.8261 5.80901 61.0919 6.36596C60.8013 6.58862 60.567 6.87645 60.4081 7.20625C60.2491 7.53605 60.1698 7.89859 60.1767 8.26464C60.165 8.67748 60.2098 9.09617 60.1591 9.50317C60.1393 9.77383 60.0172 10.0268 59.8175 10.2106C59.6178 10.3943 59.3556 10.4951 59.0842 10.4924C58.8144 10.5315 58.5399 10.4673 58.3154 10.3128C58.0909 10.1583 57.9329 9.92483 57.8729 9.65896C57.3471 7.86738 58.1864 5.49938 59.7463 4.40107C61.3061 3.30276 62.9517 3.16449 64.6244 4.02328C66.2661 4.86649 67.1268 6.26859 67.156 8.13612C67.1735 9.15654 67.1833 10.177 67.156 11.1954C67.1385 11.6764 67.3839 11.692 67.7402 11.6764C68.0538 11.6628 68.4004 11.7446 68.3439 11.2266C68.3196 10.9604 68.3196 10.6925 68.3439 10.4262C68.3536 10.1318 68.4787 9.85298 68.6922 9.65003C68.9057 9.44707 69.1905 9.33626 69.4851 9.34154C69.7788 9.32953 70.0658 9.43172 70.2858 9.62669C70.5058 9.82165 70.6418 10.0942 70.6652 10.3873C70.6652 10.4106 70.6652 10.436 70.6652 10.4613C70.7509 11.5888 70.7509 11.5888 71.8842 11.6745C72.1941 11.6714 72.4925 11.7915 72.7138 12.0084C72.9351 12.2254 73.0612 12.5213 73.0643 12.8312C73.0674 13.1411 72.9473 13.4395 72.7304 13.6608C72.5134 13.8821 72.2175 14.0082 71.9076 14.0113C71.5064 14.0522 70.9767 13.8166 70.7392 14.1398C70.5444 14.3949 70.6924 14.8876 70.6613 15.2732C70.6264 15.5562 70.4893 15.8167 70.2757 16.0056C70.0621 16.1945 69.7868 16.2988 69.5016 16.2988C69.2165 16.2988 68.9412 16.1945 68.7276 16.0056C68.514 15.8167 68.3768 15.5562 68.342 15.2732C68.3253 15.0788 68.3253 14.8834 68.342 14.689C68.377 14.2586 68.3556 13.9763 67.7578 13.9802C67.1599 13.9841 67.1443 14.2314 67.1599 14.6773C67.1872 15.4309 67.1911 16.1846 67.1599 16.9363C67.1404 17.3764 67.2612 17.5205 67.7227 17.5205C69.0333 17.4893 70.3458 17.5049 71.6583 17.5205C72.5814 17.5205 72.9864 17.9353 73.0001 18.8466C73.0663 23.6839 69.1618 28.2894 64.3654 29.0275C64.1025 29.0683 63.8396 29.1268 63.5748 29.154C62.5057 29.2689 62.5038 29.265 62.5038 30.3225C62.5038 37.8782 62.4992 45.4334 62.4901 52.9878C62.4901 53.5935 62.642 53.8349 63.2554 53.9946C65.9019 54.6801 67.8863 56.2633 69.2144 58.6508C69.8687 59.8289 69.3721 60.6663 68.0343 60.6682L56.6656 60.6429ZM53.1759 41.3835C53.1759 45.2782 53.1759 49.1535 53.1661 53.0404C53.1661 53.4961 53.2616 53.6675 53.7601 53.6597C55.7075 53.6298 57.6496 53.6298 59.5866 53.6597C60.0812 53.6597 60.1844 53.5019 60.1825 53.0424C60.1708 45.2957 60.1708 37.5491 60.1825 29.8025C60.1825 29.2183 59.9878 29.1404 59.4756 29.1462C57.6061 29.1735 55.7347 29.1832 53.8652 29.1462C53.2713 29.1326 53.1545 29.3235 53.1584 29.8765C53.1856 33.7089 53.1759 37.5472 53.1759 41.3835ZM56.6987 19.8281C52.282 19.8281 47.8654 19.8378 43.4566 19.8164C42.8724 19.8164 42.7847 19.9547 42.921 20.5136C43.8168 24.1707 46.9326 26.7451 50.7611 26.8094C54.7156 26.8717 58.6713 26.8717 62.6284 26.8094C66.4296 26.7432 69.5143 24.1863 70.4354 20.5642C70.6126 19.8729 70.4023 19.8164 69.8122 19.8203C65.4365 19.8378 61.0685 19.8281 56.6987 19.8281ZM47.3163 58.2574H65.9837C64.7783 56.8689 62.8874 56.014 60.8271 55.9887C58.0618 55.9576 55.2966 55.9478 52.5313 55.9887C51.5528 55.9881 50.5846 56.1892 49.6873 56.5796C48.79 56.9699 47.9829 57.5411 47.3163 58.2574Z" fill="#CB3F58"/>
<path d="M45.0125 3.05176e-05C46.5158 3.05176e-05 48.0211 0.0117147 49.5245 3.05176e-05C50.1652 3.05176e-05 50.6209 0.241504 50.8 0.851029C50.8064 0.902683 50.8235 0.952433 50.8502 0.997065C50.877 1.0417 50.9128 1.08022 50.9554 1.11013C50.998 1.14005 51.0464 1.1607 51.0974 1.17074C51.1485 1.18079 51.2011 1.18001 51.2518 1.16845C51.5184 1.15385 51.7856 1.15385 52.0522 1.16845C52.2033 1.16913 52.3527 1.20017 52.4915 1.25972C52.6304 1.31928 52.7558 1.40613 52.8605 1.51512C52.9651 1.62411 53.0468 1.75301 53.1006 1.89418C53.1544 2.03534 53.1794 2.18589 53.1739 2.33687C53.1809 2.63325 53.0726 2.92079 52.8716 3.13879C52.6707 3.35679 52.393 3.4882 52.097 3.50529C51.6958 3.54813 51.135 3.31055 50.9286 3.62797C50.7221 3.94539 50.8448 4.46729 50.8409 4.8996C50.8409 5.91807 50.8409 6.93849 50.8409 7.95697C50.8409 8.93065 50.4378 9.32012 49.4778 9.33765C48.5177 9.35517 48.5041 9.34933 48.5041 10.3561C48.5041 11.1351 48.5041 11.914 48.5041 12.693C48.5041 13.5751 48.0874 13.9996 47.2247 14.0055C45.7447 14.0172 44.2647 14.0172 42.7847 14.0055C41.9239 14.0055 41.5208 13.5751 41.5111 12.691C41.5014 11.8069 41.4702 10.8936 41.5247 9.9978C41.5578 9.4136 41.3456 9.2617 40.8256 9.34154C40.6805 9.35514 40.5345 9.35514 40.3894 9.34154C39.6105 9.31038 39.1898 8.89365 39.1821 8.10691C39.1684 6.77297 39.1567 5.43707 39.1821 4.10313C39.1937 3.62018 39.0438 3.44687 38.5725 3.50724C38.355 3.52964 38.1357 3.52964 37.9182 3.50724C37.6246 3.49409 37.3478 3.36684 37.1467 3.1526C36.9455 2.93836 36.836 2.65406 36.8413 2.36024C36.829 2.06697 36.9319 1.78053 37.1281 1.56217C37.3242 1.34382 37.5981 1.21089 37.891 1.19182C38.085 1.16911 38.2811 1.16911 38.4752 1.19182C38.9075 1.24829 39.1606 1.14508 39.3125 0.671872C39.4878 0.138293 39.9668 3.05176e-05 40.4985 3.05176e-05C42.0038 0.0136621 43.5052 3.05176e-05 45.0125 3.05176e-05ZM45.0125 2.33687C44.0388 2.33687 43.0651 2.35245 42.0914 2.33687C41.6844 2.32713 41.478 2.38555 41.4916 2.87629C41.5286 4.0895 41.5169 5.30271 41.4916 6.51591C41.4916 6.88786 41.5851 7.02223 41.9785 7.01834C43.9921 7.00016 46.0043 7.00016 48.0153 7.01834C48.4048 7.01834 48.506 6.88397 48.5002 6.51397C48.4807 5.30076 48.4788 4.08755 48.5002 2.87434C48.5002 2.47124 48.4009 2.32324 47.9764 2.33492C47.0105 2.35634 46.0076 2.33687 45.0125 2.33687ZM45.0125 9.33375C43.8441 9.33375 43.8441 9.33375 43.8441 10.2295C43.8441 11.6667 43.844 11.6667 44.7574 11.6667C46.1789 11.6667 46.1789 11.6667 46.1789 10.7359C46.1809 9.33375 46.1809 9.33375 45.0125 9.33375Z" fill="#CB3F58"/>
<path d="M15.4026 15.1642C15.2566 15.1642 15.1086 15.1758 14.9645 15.1642C14.02 15.0687 13.3073 15.1875 12.7094 16.1729C11.9149 17.4835 10.1779 17.8301 8.75045 17.2712C7.27824 16.687 6.41361 15.2732 6.53824 13.6257C6.64145 12.2022 7.77092 10.9325 9.26455 10.5703C9.97874 10.3989 10.7293 10.4638 11.4034 10.7553C12.0776 11.0467 12.639 11.549 13.0035 12.1866C13.3034 12.7397 13.6364 12.8663 14.1933 12.8448C15.1144 12.8098 16.0394 12.8254 16.9625 12.8448C17.7122 12.8448 18.1854 13.3025 18.1971 13.9802C18.2107 14.6929 17.7298 15.1486 16.9391 15.17C16.4211 15.172 15.9109 15.1642 15.4026 15.1642ZM10.0104 15.1544C10.3172 15.1619 10.6144 15.0472 10.8366 14.8356C11.0588 14.624 11.1879 14.3327 11.1954 14.0259C11.2029 13.7191 11.0882 13.4219 10.8765 13.1997C10.6649 12.9775 10.3737 12.8484 10.0669 12.841C9.91496 12.8372 9.76381 12.8635 9.62205 12.9182C9.48029 12.9729 9.3507 13.055 9.24066 13.1598C9.13063 13.2646 9.04231 13.39 8.98075 13.5289C8.91919 13.6679 8.8856 13.8175 8.88189 13.9695C8.87819 14.1214 8.90443 14.2725 8.95914 14.4143C9.01385 14.556 9.09594 14.6856 9.20073 14.7957C9.30552 14.9057 9.43096 14.994 9.56988 15.0556C9.7088 15.1171 9.85849 15.1507 10.0104 15.1544Z" fill="#CB3F58"/>
</g>
<defs>
<filter id="filter0_d_344_565" x="0.647059" y="0" width="74.7059" height="65.38" filterUnits="userSpaceOnUse" color-interpolation-filters="sRGB">
<feFlood flood-opacity="0" result="BackgroundImageFix"/>
<feColorMatrix in="SourceAlpha" type="matrix" values="0 0 0 0 0 0 0 0 0 0 0 0 0 0 0 0 0 0 127 0" result="hardAlpha"/>
<feOffset dy="2.35294"/>
<feGaussianBlur stdDeviation="1.17647"/>
<feComposite in2="hardAlpha" operator="out"/>
<feColorMatrix type="matrix" values="0 0 0 0 0 0 0 0 0 0 0 0 0 0 0 0 0 0 0.25 0"/>
<feBlend mode="normal" in2="BackgroundImageFix" result="effect1_dropShadow_344_565"/>
<feBlend mode="normal" in="SourceGraphic" in2="effect1_dropShadow_344_565" result="shape"/>
</filter>
<clipPath id="clip0_344_565">
<rect width="70" height="60.6741" fill="white" transform="translate(3)"/>
</clipPath>
</defs>
</svg>
