<svg width="81" height="81" viewBox="0 0 81 81" fill="none" xmlns="http://www.w3.org/2000/svg">
<path d="M78.4688 39.2344H48.0938V37.9688H58.2188C58.5544 37.9688 58.8763 37.8354 59.1137 37.5981C59.351 37.3607 59.4844 37.0388 59.4844 36.7031V16.4531C59.4844 16.1175 59.351 15.7955 59.1137 15.5582C58.8763 15.3208 58.5544 15.1875 58.2188 15.1875H22.7812C22.4456 15.1875 22.1237 15.3208 21.8863 15.5582C21.649 15.7955 21.5156 16.1175 21.5156 16.4531V36.7031C21.5156 37.0388 21.649 37.3607 21.8863 37.5981C22.1237 37.8354 22.4456 37.9688 22.7812 37.9688H32.9062V39.2344H2.53125C2.19559 39.2344 1.87367 39.3677 1.63632 39.6051C1.39897 39.8424 1.26563 40.1643 1.26562 40.5V67.0781C1.26563 67.4138 1.39897 67.7357 1.63632 67.9731C1.87367 68.2104 2.19559 68.3438 2.53125 68.3438H6.32812C6.58112 68.3437 6.8283 68.2678 7.0378 68.126C7.2473 67.9842 7.40953 67.7829 7.50357 67.548L9.71684 62.0156H71.2832L73.4964 67.548C73.5905 67.7829 73.7527 67.9842 73.9622 68.126C74.1717 68.2678 74.4189 68.3437 74.6719 68.3438H78.4688C78.8044 68.3438 79.1263 68.2104 79.3637 67.9731C79.601 67.7357 79.7344 67.4138 79.7344 67.0781V40.5C79.7344 40.1643 79.601 39.8424 79.3637 39.6051C79.1263 39.3677 78.8044 39.2344 78.4688 39.2344ZM24.0469 35.4375V17.7188H56.9531V35.4375H24.0469ZM45.5625 37.9688V39.2344H35.4375V37.9688H45.5625ZM5.47066 65.8125H3.79688V62.0156H6.98941L5.47066 65.8125ZM77.2031 65.8125H75.5293L74.0106 62.0156H77.2031V65.8125ZM77.2031 59.4844H3.79688V41.7656H77.2031V59.4844Z" fill="#CB3F58"/>
<path d="M20.25 56.9531V44.2969C20.25 43.9612 20.1167 43.6393 19.8793 43.4019C19.642 43.1646 19.32 43.0312 18.9844 43.0312H6.32812C5.99246 43.0312 5.67054 43.1646 5.43319 43.4019C5.19584 43.6393 5.0625 43.9612 5.0625 44.2969V56.9531C5.0625 57.2888 5.19584 57.6107 5.43319 57.8481C5.67054 58.0854 5.99246 58.2188 6.32812 58.2188H18.9844C19.32 58.2188 19.642 58.0854 19.8793 57.8481C20.1167 57.6107 20.25 57.2888 20.25 56.9531ZM17.7188 55.6875H7.59375V45.5625H17.7188V55.6875Z" fill="#CB3F58"/>
<path d="M11.3906 49.3594H13.9219C14.2575 49.3594 14.5795 49.226 14.8168 48.9887C15.0542 48.7513 15.1875 48.4294 15.1875 48.0938C15.1875 47.7581 15.0542 47.4362 14.8168 47.1988C14.5795 46.9615 14.2575 46.8281 13.9219 46.8281H11.3906C11.055 46.8281 10.733 46.9615 10.4957 47.1988C10.2583 47.4362 10.125 47.7581 10.125 48.0938C10.125 48.4294 10.2583 48.7513 10.4957 48.9887C10.733 49.226 11.055 49.3594 11.3906 49.3594Z" fill="#CB3F58"/>
<path d="M22.7812 58.2188H74.6719C75.0075 58.2188 75.3295 58.0854 75.5668 57.8481C75.8042 57.6107 75.9375 57.2888 75.9375 56.9531V44.2969C75.9375 43.9612 75.8042 43.6393 75.5668 43.4019C75.3295 43.1646 75.0075 43.0312 74.6719 43.0312H22.7812C22.4456 43.0312 22.1237 43.1646 21.8863 43.4019C21.649 43.6393 21.5156 43.9612 21.5156 44.2969V56.9531C21.5156 57.2888 21.649 57.6107 21.8863 57.8481C22.1237 58.0854 22.4456 58.2188 22.7812 58.2188ZM73.4062 55.6875H24.0469V51.8906H73.4062V55.6875ZM24.0469 45.5625H73.4062V49.3594H24.0469V45.5625Z" fill="#CB3F58"/>
</svg>
