<svg width="30" height="30" viewBox="0 0 30 30" fill="none" xmlns="http://www.w3.org/2000/svg">
<path fill-rule="evenodd" clip-rule="evenodd" d="M25.105 4.24569C22.3361 1.47676 18.6441 0 14.7676 0C6.64543 0 0 6.64543 0 14.7676C0 17.352 0.738393 19.9363 2.03056 22.1514L0 29.5353L7.75303 27.5047C9.96817 28.6123 12.3679 29.3507 14.7676 29.3507C22.8898 29.3507 29.5353 22.7052 29.5353 14.583C29.5353 10.7065 27.8739 7.01463 25.105 4.24569ZM14.7676 26.9509C12.5525 26.9509 10.3374 26.3971 8.4914 25.2896L8.12219 25.105L3.5073 26.3971L4.79949 21.9669L4.43028 21.4131C3.13811 19.3825 2.58432 17.1674 2.58432 14.9522C2.58432 8.30679 8.1222 2.76893 14.7676 2.76893C18.0903 2.76893 21.0439 4.0611 23.4436 6.27624C25.8434 8.67598 26.9509 11.6295 26.9509 14.9522C26.9509 21.4131 21.5977 26.9509 14.7676 26.9509ZM21.4131 17.7212C21.0439 17.5366 19.1979 16.6136 18.8288 16.6136C18.4596 16.429 18.2749 16.429 18.0903 16.7982C17.9057 17.1674 17.1674 17.9058 16.9828 18.2749C16.7982 18.4595 16.6136 18.4595 16.2444 18.4595C15.8752 18.2749 14.7677 17.9058 13.2909 16.6136C12.1833 15.6906 11.4449 14.3984 11.2603 14.0293C11.0757 13.6601 11.2603 13.4755 11.4449 13.2909C11.6295 13.1063 11.8141 12.9217 11.9987 12.7371C12.1833 12.5525 12.1833 12.3679 12.3679 12.1833C12.5525 11.9987 12.3679 11.8141 12.3679 11.6295C12.3679 11.4449 11.6295 9.59896 11.2603 8.86058C11.0757 8.30679 10.7066 8.30679 10.522 8.30679C10.3374 8.30679 10.1527 8.30679 9.78353 8.30679C9.59894 8.30679 9.22975 8.30679 8.86056 8.67598C8.49137 9.04517 7.56842 9.96815 7.56842 11.8141C7.56842 13.6601 8.86057 15.3214 9.04516 15.6906C9.22976 15.8752 11.6295 19.7517 15.3214 21.2285C18.4595 22.5206 19.0133 22.1514 19.7517 22.1514C20.4901 22.1514 21.9669 21.2285 22.1514 20.4901C22.5206 19.5671 22.5206 18.8287 22.3361 18.8287C22.1515 17.9058 21.7823 17.9058 21.4131 17.7212Z" fill="#FFE5EA"/>
</svg>
